<svg width="40" height="40" viewBox="0 0 40 40" fill="none" xmlns="http://www.w3.org/2000/svg">
<g clip-path="url(#clip0_1778_31448)">
<rect width="40" height="40" rx="8" fill="#141416" style="fill:#141416;fill:color(display-p3 0.0784 0.0784 0.0863);fill-opacity:1;"/>
<path d="M20 10C23.9946 10 25.9921 10.0003 27.4307 10.9521C28.0729 11.3771 28.6229 11.9271 29.0479 12.5693C29.9997 14.0079 30 16.0054 30 20C30 23.9946 29.9997 25.9921 29.0479 27.4307C28.6229 28.0729 28.0729 28.6229 27.4307 29.0479C25.9921 29.9997 23.9946 30 20 30C16.0054 30 14.0079 29.9997 12.5693 29.0479C11.9271 28.6229 11.3771 28.0729 10.9521 27.4307C10.0003 25.9921 10 23.9946 10 20C10 16.0054 10.0003 14.0079 10.9521 12.5693C11.3771 11.9271 11.9271 11.3771 12.5693 10.9521C14.0079 10.0003 16.0054 10 20 10ZM20 14.8232C17.1408 14.8232 14.8224 17.1409 14.8223 20C14.8223 22.8592 17.1408 25.1777 20 25.1777C22.8592 25.1776 25.1768 22.8592 25.1768 20C25.1766 17.1409 22.8591 14.8233 20 14.8232ZM20 16.5742C21.8917 16.5743 23.4256 18.1083 23.4258 20C23.4258 21.8918 21.8918 23.4257 20 23.4258C18.1081 23.4258 16.5742 21.8919 16.5742 20C16.5744 18.1082 18.1082 16.5742 20 16.5742ZM25.3818 13.3467C24.71 13.3467 24.165 13.8916 24.165 14.5635C24.1653 15.2351 24.7101 15.7793 25.3818 15.7793C26.0533 15.7791 26.5974 15.235 26.5977 14.5635C26.5977 13.8918 26.0535 13.3469 25.3818 13.3467Z" fill="white" style="fill:white;fill-opacity:1;"/>
</g>
<defs>
<clipPath id="clip0_1778_31448">
<rect width="40" height="40" fill="white" style="fill:white;fill-opacity:1;"/>
</clipPath>
</defs>
</svg>
