<svg width="88" height="64" viewBox="0 0 88 64" fill="none" xmlns="http://www.w3.org/2000/svg">
<path d="M61.6383 17.25H76.0007L67.071 36.2817C65.3656 39.9119 63.1355 42.8646 60.5614 44.9004C57.9873 46.9363 55.1416 47.998 52.2551 47.9994H37.8945L46.8225 28.9664C48.528 25.3366 50.7582 22.3843 53.3323 20.3487C55.9064 18.3131 58.752 17.2515 61.6383 17.25Z" fill="white" style="fill:white;fill-opacity:1;"/>
<path d="M48.6261 16L33.6023 48L33.5636 47.8765C33.3267 47.1379 33.0898 46.431 32.8432 45.7693L32.8133 45.7075C27.9504 33.0069 19.3879 36.4017 13.5581 42.4637C12.6704 43.3862 11.6048 41.7554 12.1473 40.3415L16.1331 29.932C17.7635 25.6833 20.0729 22.1663 22.8358 19.7245C25.5986 17.2826 28.7205 15.9994 31.8965 16H48.6261Z" fill="white" style="fill:white;fill-opacity:1;"/>
</svg>
