<svg width="40" height="40" viewBox="0 0 40 40" fill="none" xmlns="http://www.w3.org/2000/svg">
<g clip-path="url(#clip0_1778_31459)">
<rect width="40" height="40" rx="8" fill="#141416" style="fill:#141416;fill:color(display-p3 0.0784 0.0784 0.0863);fill-opacity:1;"/>
<path d="M20.4874 27.754L15.9738 27.6697C14.5125 27.6403 13.0474 27.6989 11.6147 27.3944C9.43519 26.9394 9.28079 24.7084 9.11922 22.837C8.89659 20.2061 8.98278 17.5274 9.4029 14.9184C9.64007 13.4545 10.5734 12.581 12.0169 12.4859C16.8895 12.1409 21.7945 12.1818 26.6563 12.3428C27.1698 12.3575 27.6868 12.4382 28.1931 12.53C30.6923 12.9776 30.7533 15.5059 30.9153 17.6341C31.0768 19.7844 31.0086 21.9457 30.6998 24.0813C30.4521 25.8495 29.978 27.3323 27.9776 27.4755C25.4712 27.6627 23.0223 27.8134 20.5089 27.7654C20.509 27.754 20.4946 27.754 20.4874 27.754ZM17.8339 23.2774C19.7226 22.1691 21.5754 21.0794 23.4534 19.9786C21.5611 18.8703 19.7118 17.7806 17.8339 16.6798V23.2774Z" fill="white" style="fill:white;fill-opacity:1;"/>
</g>
<defs>
<clipPath id="clip0_1778_31459">
<rect width="40" height="40" fill="white" style="fill:white;fill-opacity:1;"/>
</clipPath>
</defs>
</svg>
